<svg width="15" height="19" viewBox="0 0 15 19" fill="none" xmlns="http://www.w3.org/2000/svg">
<path d="M7.49996 6.99993C6.53747 6.99993 5.71352 6.65722 5.02811 5.97181C4.3427 5.2864 4 4.46245 4 3.49996C4 2.53747 4.3427 1.71352 5.02811 1.02811C5.71352 0.342705 6.53747 0 7.49996 0C8.46245 0 9.2864 0.342705 9.97181 1.02811C10.6572 1.71352 10.9999 2.53747 10.9999 3.49996C10.9999 4.46245 10.6572 5.2864 9.97181 5.97181C9.2864 6.65722 8.46245 6.99993 7.49996 6.99993ZM7.49996 5.49996C8.04996 5.49996 8.5208 5.30413 8.91246 4.91246C9.30413 4.5208 9.49996 4.04996 9.49996 3.49996C9.49996 2.94996 9.30413 2.47913 8.91246 2.08746C8.5208 1.6958 8.04996 1.49996 7.49996 1.49996C6.94996 1.49996 6.47913 1.6958 6.08746 2.08746C5.6958 2.47913 5.49996 2.94996 5.49996 3.49996C5.49996 4.04996 5.6958 4.5208 6.08746 4.91246C6.47913 5.30413 6.94996 5.49996 7.49996 5.49996ZM0 18.1537V12.2153C0 11.7256 0.129747 11.272 0.38924 10.8546C0.648734 10.4371 1.00745 10.1112 1.46537 9.87687C2.30896 9.45636 3.24422 9.10893 4.27114 8.83457C5.29806 8.56021 6.37433 8.42303 7.49996 8.42303C8.62559 8.42303 9.70187 8.56021 10.7288 8.83457C11.7557 9.10893 12.691 9.45636 13.5346 9.87687C13.9925 10.1112 14.3512 10.4371 14.6107 10.8546C14.8702 11.272 14.9999 11.7258 14.9999 12.2159V16.346C14.9999 16.8512 14.8249 17.2787 14.4749 17.6287C14.1249 17.9787 13.6974 18.1537 13.1922 18.1537H5.49998C4.82307 18.1537 4.2532 17.9223 3.79038 17.4595C3.32757 16.9967 3.09616 16.4268 3.09616 15.7499C3.09616 15.073 3.32757 14.5031 3.79038 14.0403C4.2532 13.5775 4.82307 13.3461 5.49998 13.3461H8.44999L9.97114 10.2095C9.58011 10.1108 9.16793 10.0384 8.73459 9.99223C8.30125 9.94608 7.88971 9.923 7.49996 9.923C6.42177 9.923 5.43043 10.0528 4.52594 10.3124C3.62146 10.572 2.83588 10.873 2.1692 11.2153C1.95766 11.3179 1.79324 11.4595 1.67593 11.6403C1.55862 11.8211 1.49996 12.0127 1.49996 12.2153V18.1537H0ZM5.49998 16.6537H6.87307L7.74616 14.846H5.49998C5.25511 14.846 5.04324 14.9355 4.8644 15.1143C4.68555 15.2932 4.59612 15.505 4.59612 15.7499C4.59612 15.9948 4.68555 16.2066 4.8644 16.3855C5.04324 16.5643 5.25511 16.6537 5.49998 16.6537ZM8.52495 16.6537H13.1922C13.282 16.6537 13.3557 16.6249 13.4134 16.5672C13.4711 16.5095 13.5 16.4358 13.5 16.346V12.2153C13.5 12.0127 13.4381 11.8211 13.3144 11.6403C13.1907 11.4595 13.0346 11.3179 12.8461 11.2153C12.6397 11.1089 12.4182 11.0047 12.1817 10.9028C11.9451 10.8009 11.7 10.7031 11.4461 10.6095L8.52495 16.6537Z" fill="#000A1E"/>
</svg>
