<svg width="56" height="41" viewBox="0 0 56 41" fill="none" xmlns="http://www.w3.org/2000/svg">
<path d="M25.7185 20.3259C25.7185 23.6444 25.4568 26.5877 24.9333 29.1556C24.4099 31.7235 23.6148 33.8815 22.5481 35.6296C21.4815 37.3778 20.1284 38.7012 18.4889 39.6C16.8494 40.4988 14.9136 40.9481 12.6815 40.9481C8.49383 40.9481 5.33333 39.1901 3.2 35.6741C1.06667 32.158 0 27.042 0 20.3259C0 13.7481 1.06667 8.71605 3.2 5.22963C5.33333 1.74321 8.57284 0 12.9185 0C17.1062 0 20.2864 1.72346 22.4593 5.17037C24.6321 8.61728 25.7185 13.6691 25.7185 20.3259ZM20.2667 20.3259C20.2667 17.4815 20.1432 14.9432 19.8963 12.7111C19.6494 10.479 19.2346 8.59753 18.6519 7.06667C18.0691 5.5358 17.2889 4.37037 16.3111 3.57037C15.3333 2.77037 14.1235 2.37037 12.6815 2.37037C11.2198 2.37037 10.0198 2.77037 9.08148 3.57037C8.14321 4.37037 7.40741 5.5358 6.87407 7.06667C6.34074 8.59753 5.97037 10.479 5.76296 12.7111C5.55556 14.9432 5.45185 17.4815 5.45185 20.3259C5.45185 23.1704 5.55556 25.7235 5.76296 27.9852C5.97037 30.2469 6.34074 32.163 6.87407 33.7333C7.40741 35.3037 8.14321 36.5086 9.08148 37.3481C10.0198 38.1877 11.2198 38.6074 12.6815 38.6074C14.1235 38.6074 15.3333 38.1877 16.3111 37.3481C17.2889 36.5086 18.0691 35.3037 18.6519 33.7333C19.2346 32.163 19.6494 30.2469 19.8963 27.9852C20.1432 25.7235 20.2667 23.1704 20.2667 20.3259ZM56 29.5407C56 31.3383 55.684 32.9432 55.0519 34.3556C54.4198 35.7679 53.5062 36.963 52.3111 37.9407C51.116 38.9185 49.6444 39.6642 47.8963 40.1778C46.1481 40.6914 44.158 40.9481 41.9259 40.9481C39.9704 40.9481 38.0741 40.8296 36.237 40.5926C34.4 40.3556 32.7407 40.0494 31.2593 39.6741L30.9333 31.3185H32.8889L34.2222 36.8889C34.5778 37.0864 35.042 37.284 35.6148 37.4815C36.1877 37.679 36.8049 37.8519 37.4667 38C38.1284 38.1481 38.8099 38.2667 39.5111 38.3556C40.2123 38.4444 40.8593 38.4889 41.4519 38.4889C43.2889 38.4889 44.7951 38.2617 45.9704 37.8074C47.1457 37.3531 48.0741 36.716 48.7556 35.8963C49.437 35.0765 49.9062 34.0988 50.163 32.963C50.4198 31.8272 50.5481 30.5877 50.5481 29.2444C50.5481 27.7037 50.3309 26.4247 49.8963 25.4074C49.4617 24.3901 48.8642 23.5704 48.1037 22.9481C47.3432 22.3259 46.4543 21.8716 45.437 21.5852C44.4198 21.2988 43.3284 21.1259 42.163 21.0667L37.9259 20.8296V18.4L42.163 18.1333C44.3951 18.0148 46.0444 17.3235 47.1111 16.0593C48.1778 14.7951 48.7111 12.879 48.7111 10.3111C48.7111 9.02716 48.5778 7.90617 48.3111 6.94815C48.0444 5.99012 47.6247 5.19506 47.0519 4.56296C46.479 3.93086 45.7333 3.45679 44.8148 3.14074C43.8963 2.82469 42.7753 2.66667 41.4519 2.66667C40.8593 2.66667 40.2617 2.71111 39.6593 2.8C39.0568 2.88889 38.479 3.00741 37.9259 3.15556C37.3728 3.3037 36.8593 3.4716 36.3852 3.65926C35.9111 3.84691 35.4963 4.03951 35.1407 4.23704L34.1037 9.0963H32.1481V1.45185C32.8395 1.27407 33.5309 1.10617 34.2222 0.948148C34.9136 0.790123 35.6346 0.65679 36.3852 0.548148C37.1358 0.439506 37.9259 0.350617 38.7556 0.281481C39.5852 0.212346 40.484 0.177778 41.4519 0.177778C45.6198 0.177778 48.7852 0.977778 50.9481 2.57778C53.1111 4.17778 54.1926 6.63704 54.1926 9.95556C54.1926 11.2 54.0247 12.3605 53.6889 13.437C53.3531 14.5136 52.8296 15.4667 52.1185 16.2963C51.4074 17.1259 50.5037 17.8222 49.4074 18.3852C48.3111 18.9481 47.0123 19.3383 45.5111 19.5556C49.1062 19.9704 51.7531 21.0025 53.4519 22.6519C55.1506 24.3012 56 26.5975 56 29.5407Z" fill="white" fill-opacity="0.1"/>
</svg>
